<svg width="55" height="55" viewBox="0 0 55 55" fill="none" xmlns="http://www.w3.org/2000/svg">
<path d="M25.4353 2.26098C25.4691 2.24666 25.4956 2.24462 25.5299 2.23132C25.5279 2.2257 25.5043 2.23234 25.4353 2.26098Z" fill="#F80650"/>
<path d="M26.7911 20.9395C26.7855 20.941 26.853 20.9778 26.7911 20.9395V20.9395Z" fill="#F80650"/>
<path d="M28.6556 19.8839C28.6275 19.8302 28.605 19.8143 28.5799 19.7796C28.6219 19.6384 28.6592 19.4968 28.6812 19.3438C28.8019 18.5005 28.5963 17.6184 28.5513 16.7679C28.4301 14.5029 28.4152 12.2292 28.4541 9.96111C28.4858 8.05511 29.6288 0.608039 25.5299 2.23175C25.5427 2.26448 24.5091 2.85873 24.2555 3.29086C23.8356 4.00836 23.9062 4.92122 23.9006 5.7231C23.8811 8.07454 23.9128 10.4244 24.0335 12.7723C24.1399 14.8348 24.4202 16.9305 25.0553 18.8994C25.2773 19.5857 25.6654 20.2751 26.3077 20.651C26.6217 20.8351 26.7445 20.9092 26.7915 20.9394C26.7987 20.9374 26.8933 20.9793 27.3331 21.2064C28.1227 21.614 29.2606 20.7292 28.6556 19.8839Z" fill="#F80650"/>
<path d="M54.052 25.205C49.0157 17.758 38.9277 0.646383 28.5759 0.909244C26.5906 0.959874 25.5898 3.82374 27.5193 4.81126C34.6974 8.48519 39.6565 14.1377 44.6483 20.3861C46.1871 22.3125 47.6206 24.3208 49.0412 26.3342C48.8883 26.1179 44.321 30.7129 43.0665 31.9786C40.7084 29.1122 37.7126 26.6242 35.4338 23.655C32.6692 20.0521 30.2323 16.2212 27.8021 12.3903C27.2094 11.4565 25.8409 12.2701 26.3293 13.2515C28.5431 17.6946 31.295 21.8569 34.1803 25.8888C36.0674 28.5251 38.2046 32.0896 40.9022 34.2078C38.9282 36.2217 36.9568 38.2387 35.0211 40.2874C33.445 37.2394 30.284 34.1485 28.6142 31.8492C26.6857 29.1935 24.5465 25.4019 21.9762 22.6767C23.0205 22.4624 24.0837 22.3795 25.152 22.3719C26.721 25.1687 28.424 27.8265 30.3469 30.4342C31.8085 32.4158 34.2213 37.0845 37.2048 36.6457C38.2593 36.4907 38.3616 34.8844 37.4942 34.4287C37.1915 34.2697 35.9324 32.7278 35.4512 32.222C34.028 30.7297 32.7208 29.1306 31.386 27.5606C29.8626 25.7707 28.3069 24.0416 26.7379 22.3192C27.6415 22.0226 27.8512 20.562 26.9363 20.0567C9.61709 10.4925 -4.44346 39.6635 1.58804 53.298C2.38379 55.0956 4.80375 54.597 5.72223 53.298C8.40046 49.509 11.2168 45.8867 14.4182 42.5258C17.4088 39.3858 20.6573 38.187 24.12 36.3879C23.6556 42.2542 23.5748 51.8446 28.2946 50.7865C28.4045 50.762 28.4797 50.6924 28.5769 50.6495C29.1768 50.9604 29.9403 50.9537 30.6113 50.3487C38.5488 43.185 46.1037 35.6484 53.6787 28.1062C54.4023 27.3836 54.6483 26.0872 54.052 25.205ZM4.53526 46.6937C4.23763 44.641 4.35423 42.556 4.77051 40.5098C5.17605 41.7541 5.66086 43.0398 6.57372 43.8836C6.58293 43.8923 6.59418 43.8953 6.60338 43.903C5.869 44.8609 5.17605 45.8029 4.53526 46.6937ZM8.32733 41.7336C8.02253 40.8919 7.56891 40.1227 7.14496 39.2692C6.71691 38.4075 6.33336 37.5253 5.96259 36.6375C6.25665 35.9236 6.60031 35.2275 6.96546 34.5412C7.32958 36.9106 7.99133 39.352 9.11131 40.7983C8.84691 41.1087 8.58456 41.4207 8.32733 41.7336ZM11.0894 38.5905C10.5126 37.58 9.93671 36.0325 9.74852 35.5063C9.31127 34.2784 8.9763 33.0045 8.72264 31.7157C9.54447 30.5743 10.466 29.5029 11.4633 28.5169C11.943 29.6098 12.4129 30.7032 12.9586 31.7674C13.4173 32.6634 14.1272 34.0503 15.0523 34.9539C13.6899 36.0069 12.3608 37.2507 11.0894 38.5905ZM17.4119 33.3676C16.8903 32.8572 16.316 32.3739 15.8613 31.7751C14.8958 30.5027 14.1134 29.0805 13.2961 27.7114C13.2317 27.604 13.1136 27.4031 12.9612 27.1591C13.5437 26.6712 14.1522 26.2253 14.7736 25.7998C15.7258 27.198 16.676 28.5987 17.6374 29.9908C18.1519 30.7364 18.6674 31.6508 19.2688 32.469C18.6475 32.7135 18.0282 33.0147 17.4119 33.3676ZM24.6002 32.017C23.8551 31.8139 23.1008 31.7505 22.3449 31.7838C21.6095 30.6224 20.5018 29.5141 19.6176 28.4627C18.5754 27.2236 17.5459 25.9742 16.5139 24.7269C17.3649 24.2538 18.2429 23.8488 19.1389 23.5056C20.8552 26.3327 22.8333 29.0672 24.7419 31.7919C24.6948 31.8676 24.6345 31.9367 24.6002 32.017ZM29.232 46.5127C29.2213 46.4447 29.2121 46.3762 29.2008 46.3087C28.9661 44.8552 28.8469 43.3947 28.7446 41.9269C28.6531 40.6055 28.5943 39.2809 28.5278 37.9569C29.6104 39.89 30.8879 41.9663 32.2984 43.2142C31.2776 44.3147 30.2425 45.4019 29.232 46.5127Z" fill="#F80650"/>
<path d="M45.8336 24.0845C45.6546 23.7613 45.3902 23.5741 45.1008 23.456C44.997 23.344 44.8538 23.1951 44.618 22.9425C44.0555 22.3416 43.4341 21.7903 42.8711 21.1853C41.164 19.353 39.5132 17.4695 37.8649 15.5849C36.2254 13.7106 34.5925 11.8322 33.0035 9.91448C32.4865 9.29108 31.9669 8.67126 31.4478 8.0499C31.0085 7.52469 30.8055 7.42855 30.6787 7.50168C30.6613 7.27103 30.5283 7.04243 30.2527 6.93095C30.0461 6.84708 29.8722 6.89822 29.6779 6.98413C29.4708 7.07516 29.3797 7.3232 29.3654 7.5298C29.325 8.09337 29.2872 7.98393 29.5163 8.5342C29.9361 9.54218 30.5662 10.4218 31.1962 11.3091C33.3042 14.2768 35.5186 17.1703 37.7703 20.0295C39.3608 22.0481 40.9293 24.4936 42.9335 26.1193C44.5838 27.4572 47.0349 26.2677 45.8336 24.0845Z" fill="#F80650"/>
</svg>
