<svg width="55" height="55" viewBox="0 0 55 55" fill="none" xmlns="http://www.w3.org/2000/svg">
<path d="M29.5645 2.26098C29.5307 2.24666 29.5041 2.24462 29.4698 2.23132C29.4719 2.2257 29.4954 2.23234 29.5645 2.26098Z" fill="#316735"/>
<path d="M28.2086 20.9395C28.2143 20.941 28.1468 20.9778 28.2086 20.9395V20.9395Z" fill="#316735"/>
<path d="M26.3442 19.8839C26.3723 19.8302 26.3948 19.8143 26.4198 19.7796C26.3779 19.6384 26.3406 19.4968 26.3186 19.3438C26.1979 18.5005 26.4035 17.6184 26.4485 16.7679C26.5697 14.5029 26.5845 12.2292 26.5456 9.96111C26.5139 8.05511 25.371 0.608039 29.4699 2.23175C29.4571 2.26448 30.4906 2.85873 30.7443 3.29086C31.1641 4.00836 31.0936 4.92122 31.0992 5.7231C31.1186 8.07454 31.0869 10.4244 30.9662 12.7723C30.8599 14.8348 30.5796 16.9305 29.9444 18.8994C29.7225 19.5857 29.3343 20.2751 28.692 20.651C28.378 20.8351 28.2553 20.9092 28.2082 20.9394C28.2011 20.9374 28.1065 20.9793 27.6666 21.2064C26.877 21.614 25.7392 20.7292 26.3442 19.8839Z" fill="#316735"/>
<path d="M0.948017 25.205C5.98433 17.758 16.0723 0.646383 26.4241 0.909244C28.4094 0.959874 29.4102 3.82374 27.4807 4.81126C20.3026 8.48519 15.3435 14.1377 10.3517 20.3861C8.8129 22.3125 7.37944 24.3208 5.95876 26.3342C6.11167 26.1179 10.679 30.7129 11.9335 31.9786C14.2916 29.1122 17.2874 26.6242 19.5662 23.655C22.3308 20.0521 24.7677 16.2212 27.1979 12.3903C27.7906 11.4565 29.1591 12.2701 28.6707 13.2515C26.4569 17.6946 23.705 21.8569 20.8197 25.8888C18.9326 28.5251 16.7954 32.0896 14.0978 34.2078C16.0718 36.2217 18.0432 38.2387 19.9789 40.2874C21.555 37.2394 24.716 34.1485 26.3858 31.8492C28.3143 29.1935 30.4535 25.4019 33.0238 22.6767C31.9795 22.4624 30.9163 22.3795 29.848 22.3719C28.279 25.1687 26.576 27.8265 24.6531 30.4342C23.1915 32.4158 20.7787 37.0845 17.7952 36.6457C16.7407 36.4907 16.6384 34.8844 17.5058 34.4287C17.8085 34.2697 19.0676 32.7278 19.5488 32.222C20.972 30.7297 22.2792 29.1306 23.614 27.5606C25.1374 25.7707 26.6931 24.0416 28.2621 22.3192C27.3585 22.0226 27.1488 20.562 28.0637 20.0567C45.3829 10.4925 59.4435 39.6635 53.412 53.298C52.6162 55.0956 50.1962 54.597 49.2778 53.298C46.5995 49.509 43.7832 45.8867 40.5818 42.5258C37.5912 39.3858 34.3427 38.187 30.88 36.3879C31.3444 42.2542 31.4252 51.8446 26.7054 50.7865C26.5955 50.762 26.5203 50.6924 26.4231 50.6495C25.8232 50.9604 25.0597 50.9537 24.3887 50.3487C16.4512 43.185 8.89626 35.6484 1.32134 28.1062C0.597702 27.3836 0.351719 26.0872 0.948017 25.205ZM50.4647 46.6937C50.7624 44.641 50.6458 42.556 50.2295 40.5098C49.8239 41.7541 49.3391 43.0398 48.4263 43.8836C48.4171 43.8923 48.4058 43.8953 48.3966 43.903C49.131 44.8609 49.8239 45.8029 50.4647 46.6937ZM46.6727 41.7336C46.9775 40.8919 47.4311 40.1227 47.855 39.2692C48.2831 38.4075 48.6666 37.5253 49.0374 36.6375C48.7434 35.9236 48.3997 35.2275 48.0345 34.5412C47.6704 36.9106 47.0087 39.352 45.8887 40.7983C46.1531 41.1087 46.4154 41.4207 46.6727 41.7336ZM43.9106 38.5905C44.4874 37.58 45.0633 36.0325 45.2515 35.5063C45.6887 34.2784 46.0237 33.0045 46.2774 31.7157C45.4555 30.5743 44.534 29.5029 43.5367 28.5169C43.057 29.6098 42.5871 30.7032 42.0414 31.7674C41.5827 32.6634 40.8728 34.0503 39.9477 34.9539C41.3101 36.0069 42.6392 37.2507 43.9106 38.5905ZM37.5881 33.3676C38.1097 32.8572 38.684 32.3739 39.1387 31.7751C40.1042 30.5027 40.8866 29.0805 41.7039 27.7114C41.7683 27.604 41.8864 27.4031 42.0388 27.1591C41.4563 26.6712 40.8478 26.2253 40.2264 25.7998C39.2742 27.198 38.324 28.5987 37.3626 29.9908C36.8481 30.7364 36.3326 31.6508 35.7312 32.469C36.3525 32.7135 36.9718 33.0147 37.5881 33.3676ZM30.3998 32.017C31.1449 31.8139 31.8992 31.7505 32.6551 31.7838C33.3905 30.6224 34.4982 29.5141 35.3824 28.4627C36.4246 27.2236 37.4541 25.9742 38.4861 24.7269C37.6351 24.2538 36.7571 23.8488 35.8611 23.5056C34.1448 26.3327 32.1667 29.0672 30.2581 31.7919C30.3052 31.8676 30.3655 31.9367 30.3998 32.017ZM25.768 46.5127C25.7787 46.4447 25.7879 46.3762 25.7992 46.3087C26.0339 44.8552 26.1531 43.3947 26.2554 41.9269C26.3469 40.6055 26.4057 39.2809 26.4722 37.9569C25.3896 39.89 24.1121 41.9663 22.7016 43.2142C23.7224 44.3147 24.7575 45.4019 25.768 46.5127Z" fill="#316735"/>
<path d="M9.16637 24.0845C9.34536 23.7613 9.60976 23.5741 9.89921 23.456C10.003 23.344 10.1462 23.1951 10.382 22.9425C10.9445 22.3416 11.5659 21.7903 12.1289 21.1853C13.836 19.353 15.4868 17.4695 17.1351 15.5849C18.7746 13.7106 20.4075 11.8322 21.9965 9.91448C22.5135 9.29108 23.0331 8.67126 23.5522 8.0499C23.9915 7.52469 24.1945 7.42855 24.3213 7.50168C24.3387 7.27103 24.4717 7.04243 24.7473 6.93095C24.9539 6.84708 25.1278 6.89822 25.3221 6.98413C25.5292 7.07516 25.6203 7.3232 25.6346 7.5298C25.675 8.09337 25.7128 7.98393 25.4837 8.5342C25.0639 9.54218 24.4338 10.4218 23.8038 11.3091C21.6958 14.2768 19.4814 17.1703 17.2297 20.0295C15.6392 22.0481 14.0707 24.4936 12.0665 26.1193C10.4162 27.4572 7.96508 26.2677 9.16637 24.0845Z" fill="#316735"/>
</svg>
