<svg xmlns="http://www.w3.org/2000/svg" width="60" height="61" viewBox="0 0 60 61"><g><g><path fill="#5a45ce" d="M59.808 25.565c-.22 4.136-.425 8.276-.608 12.413-.046 1.072-.835 1.833-1.892 1.892-3.107.175-6.222.189-9.334.248-2.7.05-5.424.336-8.065-.245.297 3.321.57 6.644.838 9.968.183 2.242 1.05 5.584.287 7.751-1.43 4.062-9.21 2.288-12.33 2.258-4.065-.038-10.242 1.04-10.456-4.603-.093-2.49.826-5.258 1.244-7.719.496-2.928 1.046-5.831 1.724-8.718-2.357 1.506-5.34 1.018-8.07 1.012-3.34-.01-6.637-.165-9.957-.53-.7.25-1.603.056-1.812-.796-1.183-4.828-1.55-9.73-1.304-14.69.054-1.099.878-1.984 2-2.003 5.918-.1 11.735-.713 17.6-1.408-1.05-6.08-1.811-12.192-2.227-18.354C17.373.938 18.43.026 19.47.017c6.496-.058 12.98.036 19.473.246a1.896 1.896 0 0 1 1.859 1.86c.198 6.281.453 12.604.336 18.892 3.119-.966 6.446-1.333 9.663-1.774 2.21-.303 5.745-1.513 7.762-.155 2.024 1.365 1.351 4.469 1.245 6.48zm-4.352-2.95c-1.158-.375-3.604.38-4.833.494-1.38.128-2.76.234-4.14.359-2.432.22-4.732.403-7.154.076-.005 0-.006-.006-.01-.006-1.08.104-2.244-.53-2.297-1.95-.214-5.852-.082-11.74.027-17.6-5.146.106-10.289.127-15.436.065.07 1.509.196 3.014.277 4.523 2.97-.057 5.943-.152 8.908-.088.952.02.95 1.457 0 1.478-2.94.064-5.886-.031-8.828-.088.237 4.253.456 8.508.78 12.756.046.581-.325.921-.772 1.122-.237.282-.54.513-.973.59-5.613 1.004-11.337 1.333-17.04 1.395-.113 1.412-.143 2.823-.17 4.232 7.749-.435 15.463-.286 23.129 1.024 1.033.176.784 1.905-.246 1.821-7.638-.632-15.246-1.168-22.912-1.086.01 1.65.062 3.3.185 4.956 2.837.089 5.685.117 8.516-.084 2.802-.198 5.787-1.386 8.477-.454.338.117.574.335.747.59.363-1.272 2.342-1 2.322.331-.04 2.51-.232 5.01-.474 7.505 1.733-.104 3.478-.235 5.199-.046a.754.754 0 0 1 0 1.507c-1.772.195-3.564.051-5.349-.055a704.382 704.382 0 0 1-.51 4.794c1.265-.052 2.53-.126 3.799-.106 1.027.017 1.025 1.579 0 1.594-1.336.02-2.667-.056-4-.112-.242 1.339-.515 2.682.517 3.288 1.18.692 4.882.024 6.293.031 2.262.011 4.838.353 7.08.036.152-.022.177.017.27.027-.04-.1-.096-.151-.096-.35-.002-1.01-.175-2.05-.26-3.055-.37-4.327-.748-8.653-1.07-12.984-.144-1.94 1.808-2.509 3.172-1.82.2-.416.503-.776 1.02-.913 2.705-.717 5.585-.43 8.368-.424 2.523.006 5.048.02 7.57.076.163-2.35.319-4.701.476-7.053.092-1.38.192-2.758.274-4.138.103-1.686.477-1.828-.837-2.258z"/></g></g></svg>