<svg xmlns="http://www.w3.org/2000/svg" width="20" height="16" viewBox="0 0 20 16"><g><g><path fill="#f80650" d="M19.856 2.591c-1.388.953-2.434 2.565-3.611 3.783-1.349 1.395-2.71 2.809-3.939 4.32-1.148 1.412-2.238 2.877-3.476 4.21-.286.309-.559.562-.878.692-.018.027-.035.053-.062.077-1.625 1.352-2.83-1.513-3.694-2.652C2.708 11.061.624 9.101.011 6.613a.336.336 0 0 1 .122-.357.316.316 0 0 1 .133-.21C.98 5.531 1.752 5.14 2.5 4.683c.218-.133 4.568 5.832 5.09 6.579C9.084 9.306 15.829.432 17.056.013c.88-.3 2.219 1.509 2.785 1.957a.274.274 0 0 1 .102.166c.087.138.086.336-.087.455zM3.911 6.528c-.39-.344-.793-.679-1.214-1.001m2.277 4.279c-.108-.127-.215-.255-.325-.38-.956-1.099-2.016-2.092-2.956-3.204a.344.344 0 0 1-.082-.201c-.026.018-.049.036-.074.055a.333.333 0 0 1 .124.215c.024.148.069.298.122.447a.277.277 0 0 1 .261.075c1.018.957 1.914 2.03 2.93 2.993zm1.511 5.225l-.001-.005c-.117-.151-.23-.304-.343-.457-.097-.108-.191-.217-.286-.327.19.29.4.582.63.789zm.579-2.344c-.008-.02-.016-.04-.02-.06a.35.35 0 0 1-.008-.143 6.454 6.454 0 0 1-.877-.668c.307.286.612.573.905.871zm1.482 1.71c-.409.329-.78.54-1.065.543l.032.065c.001.002 0 .005.002.008.313-.035.67-.275 1.03-.615zM17.19.809a2.1 2.1 0 0 0-.684.503m-1.662 3.477c.409-.507.798-1.032 1.238-1.496.278-.602.603-1.229 1.014-1.663-.617.488-.942 1.402-1.47 1.973-.803.866-1.673 1.65-2.513 2.474-.74 1.094-1.45 2.237-2.367 3.17-.282.286-.595.573-.896.875.341-.308.624-.56.783-.725 1.424-1.495 2.915-2.994 4.211-4.608zm3.618-2.397c-.345.223-.65.595-.929.97-.35.638-.918 1.185-1.397 1.684-.165.171-.333.34-.502.508-.05.095-.096.172-.133.227-.48.698-1.002 1.361-1.528 2.02.697-.752 1.43-1.472 2.083-2.264.694-.84 1.906-2.011 2.406-3.145z"/></g></g></svg>